# xmcd
#
# Track frame offsets:
#	160
#	2322
#	15637
#	33662
#	44932
#	59367
#	77577
# Disc length: 1312 seconds
# Revision: 1
# Processed by: cddbd v1.5.2PL0 Copyright (c) Steve Scherf et al.
#
# Submitted via: libkcddb 0.31
#
DISCID=4f051e07
DTITLE=Doctor Honk and the silly Blues Willies - live im extra
DYEAR=1993
DGENRE=Blues
TTITLE0=The new porter's crazy apple blues
TTITLE1=She does it right
TTITLE2=Checking up
TTITLE3=Brand new Cadillac
TTITLE4=One kind favor
TTITLE5=No place to go
TTITLE6=Treat her right
EXTD=
EXTT0=
EXTT1=
EXTT2=
EXTT3=
EXTT4=
EXTT5=
EXTT6=
PLAYORDER=
